<svg width="201" height="64" viewBox="0 0 201 64" fill="none" xmlns="http://www.w3.org/2000/svg">
<path d="M82.7344 42H78.8594C78.7656 42 78.7135 41.9479 78.7031 41.8438L74.2812 19.8594C74.2604 19.776 74.3021 19.7344 74.4062 19.7344H78.0312C78.1146 19.7344 78.1667 19.776 78.1875 19.8594L80.8125 34.5156L83.375 19.8594C83.3958 19.776 83.4479 19.7344 83.5312 19.7344H87.1094C87.224 19.7344 87.2656 19.776 87.2344 19.8594L82.8906 41.8438C82.8802 41.9479 82.8281 42 82.7344 42ZM97.6406 42H87.2969C87.2135 42 87.1719 41.9479 87.1719 41.8438L87.2031 19.8594C87.2031 19.776 87.2448 19.7344 87.3281 19.7344H97.6094C97.6927 19.7344 97.7344 19.7865 97.7344 19.8906V23.4688C97.7344 23.5521 97.6927 23.5938 97.6094 23.5938H91.0469V28.5938H97.6094C97.6927 28.5938 97.7344 28.6354 97.7344 28.7188L97.7656 32.3438C97.7656 32.4271 97.724 32.4688 97.6406 32.4688H91.0469V38.0625H97.6406C97.724 38.0625 97.7656 38.1146 97.7656 38.2188V41.875C97.7656 41.9583 97.724 42 97.6406 42ZM104.094 42H100.891C100.724 42 100.641 41.9271 100.641 41.7812L100.609 19.9844C100.609 19.8177 100.693 19.7344 100.859 19.7344H103.75L109.156 32.3438L109 19.9844C109 19.8177 109.094 19.7344 109.281 19.7344H112.453C112.578 19.7344 112.641 19.8177 112.641 19.9844L112.672 41.8125C112.672 41.9375 112.62 42 112.516 42H109.703L104.156 30.2188L104.391 41.75C104.391 41.9167 104.292 42 104.094 42ZM121.344 41.9688L115.609 42C115.505 42 115.453 41.9479 115.453 41.8438L115.516 19.8594C115.516 19.776 115.557 19.7344 115.641 19.7344L121.625 19.7031C122.812 19.6719 123.885 19.9427 124.844 20.5156C125.812 21.0885 126.583 21.8646 127.156 22.8438C127.74 23.8125 128.031 24.8854 128.031 26.0625V35.25C128.031 36.4792 127.734 37.6042 127.141 38.625C126.536 39.6354 125.734 40.4427 124.734 41.0469C123.734 41.6406 122.604 41.9479 121.344 41.9688ZM121.625 23.5312L119.391 23.5625L119.359 38.0625H121.344C122.135 38.0625 122.802 37.7865 123.344 37.2344C123.885 36.6823 124.156 36.0208 124.156 35.25V26.0312C124.156 25.3542 123.906 24.7656 123.406 24.2656C122.906 23.7552 122.312 23.5104 121.625 23.5312ZM136.469 42.3125C135.333 42.3125 134.286 42.0208 133.328 41.4375C132.38 40.8542 131.615 40.0781 131.031 39.1094C130.458 38.1302 130.172 37.0573 130.172 35.8906L130.203 25.75C130.203 24.5625 130.49 23.4948 131.062 22.5469C131.625 21.5885 132.385 20.8229 133.344 20.25C134.302 19.6667 135.344 19.375 136.469 19.375C137.635 19.375 138.682 19.6615 139.609 20.2344C140.547 20.8073 141.297 21.5781 141.859 22.5469C142.432 23.5052 142.719 24.5729 142.719 25.75L142.75 35.8906C142.75 37.0573 142.469 38.125 141.906 39.0938C141.333 40.0729 140.573 40.8542 139.625 41.4375C138.677 42.0208 137.625 42.3125 136.469 42.3125ZM136.469 38.4531C137.115 38.4531 137.677 38.1927 138.156 37.6719C138.635 37.1406 138.875 36.5469 138.875 35.8906L138.844 25.75C138.844 25.0417 138.62 24.4427 138.172 23.9531C137.724 23.4635 137.156 23.2188 136.469 23.2188C135.812 23.2188 135.25 23.4583 134.781 23.9375C134.312 24.4167 134.078 25.0208 134.078 25.75V35.8906C134.078 36.5885 134.312 37.1927 134.781 37.7031C135.25 38.2031 135.812 38.4531 136.469 38.4531ZM151.094 42.3125C149.958 42.3125 148.911 42.0208 147.953 41.4375C147.005 40.8542 146.24 40.0781 145.656 39.1094C145.083 38.1302 144.797 37.0573 144.797 35.8906L144.828 25.75C144.828 24.5625 145.115 23.4948 145.688 22.5469C146.25 21.5885 147.01 20.8229 147.969 20.25C148.927 19.6667 149.969 19.375 151.094 19.375C152.26 19.375 153.307 19.6615 154.234 20.2344C155.172 20.8073 155.922 21.5781 156.484 22.5469C157.057 23.5052 157.344 24.5729 157.344 25.75L157.375 35.8906C157.375 37.0573 157.094 38.125 156.531 39.0938C155.958 40.0729 155.198 40.8542 154.25 41.4375C153.302 42.0208 152.25 42.3125 151.094 42.3125ZM151.094 38.4531C151.74 38.4531 152.302 38.1927 152.781 37.6719C153.26 37.1406 153.5 36.5469 153.5 35.8906L153.469 25.75C153.469 25.0417 153.245 24.4427 152.797 23.9531C152.349 23.4635 151.781 23.2188 151.094 23.2188C150.438 23.2188 149.875 23.4583 149.406 23.9375C148.938 24.4167 148.703 25.0208 148.703 25.75V35.8906C148.703 36.5885 148.938 37.1927 149.406 37.7031C149.875 38.2031 150.438 38.4531 151.094 38.4531ZM163.547 42H159.922C159.839 42 159.797 41.9479 159.797 41.8438L159.859 19.8594C159.859 19.776 159.901 19.7344 159.984 19.7344H166.453C167.609 19.7344 168.672 20.0156 169.641 20.5781C170.609 21.1406 171.38 21.8958 171.953 22.8438C172.536 23.7917 172.828 24.8646 172.828 26.0625C172.828 26.8438 172.708 27.5521 172.469 28.1875C172.229 28.8229 171.948 29.3594 171.625 29.7969C171.312 30.2344 171.026 30.5573 170.766 30.7656C171.922 32.0469 172.5 33.5521 172.5 35.2812L172.531 41.8438C172.531 41.9479 172.479 42 172.375 42H168.75C168.667 42 168.625 41.9688 168.625 41.9062V35.2812C168.625 34.5104 168.354 33.8438 167.812 33.2812C167.271 32.7188 166.604 32.4375 165.812 32.4375H163.703L163.672 41.8438C163.672 41.9479 163.63 42 163.547 42ZM166.453 23.5625H163.703V28.5938H166.453C167.109 28.5938 167.693 28.349 168.203 27.8594C168.724 27.3698 168.984 26.7708 168.984 26.0625C168.984 25.3854 168.734 24.8021 168.234 24.3125C167.734 23.8125 167.141 23.5625 166.453 23.5625ZM173.5 41.8438L177.469 19.8594C177.49 19.776 177.542 19.7344 177.625 19.7344H182.266C182.349 19.7344 182.401 19.776 182.422 19.8594L186.234 41.8438C186.245 41.9479 186.203 42 186.109 42H182.562C182.458 42 182.401 41.9479 182.391 41.8438L182.047 39.5H177.688L177.344 41.8438C177.333 41.9479 177.281 42 177.188 42H173.625C173.542 42 173.5 41.9479 173.5 41.8438ZM179.766 27.0938L178.328 36.0781H181.406L180.094 27.0938L179.906 25.9062L179.766 27.0938Z" fill="#1E3A8A"/>
<circle cx="32" cy="32" r="31.5" fill="#1E3A8A" stroke="#3B82F6"/>
<g clip-path="url(#clip0_9_440)">
<path d="M28.9095 15.6049C29.3649 14.7292 29.0215 13.653 28.1481 13.2003C27.2747 12.7475 26.1847 13.0889 25.7293 13.9573L18.7792 27.2499H12.3889C11.0675 27.2499 10 28.3112 10 29.6249C10 30.9385 11.0675 31.9999 12.3889 31.9999L16.2634 47.4003C16.7934 49.5155 18.7045 50.9999 20.8993 50.9999H42.1007C44.2955 50.9999 46.2066 49.5155 46.7366 47.4003L50.6111 31.9999C51.9325 31.9999 53 30.9385 53 29.6249C53 28.3112 51.9325 27.2499 50.6111 27.2499H44.2208L37.2707 13.9573C36.8153 13.0889 35.7328 12.7475 34.8519 13.2003C33.971 13.653 33.6351 14.7292 34.0905 15.6049L40.1821 27.2499H22.8179L28.9095 15.6049ZM24.3333 35.5624V42.6874C24.3333 43.3405 23.7958 43.8749 23.1389 43.8749C22.4819 43.8749 21.9444 43.3405 21.9444 42.6874V35.5624C21.9444 34.9092 22.4819 34.3749 23.1389 34.3749C23.7958 34.3749 24.3333 34.9092 24.3333 35.5624ZM31.5 34.3749C32.1569 34.3749 32.6944 34.9092 32.6944 35.5624V42.6874C32.6944 43.3405 32.1569 43.8749 31.5 43.8749C30.8431 43.8749 30.3056 43.3405 30.3056 42.6874V35.5624C30.3056 34.9092 30.8431 34.3749 31.5 34.3749ZM41.0556 35.5624V42.6874C41.0556 43.3405 40.5181 43.8749 39.8611 43.8749C39.2042 43.8749 38.6667 43.3405 38.6667 42.6874V35.5624C38.6667 34.9092 39.2042 34.3749 39.8611 34.3749C40.5181 34.3749 41.0556 34.9092 41.0556 35.5624Z" fill="white"/>
</g>
<defs>
<clipPath id="clip0_9_440">
<rect width="43" height="38" fill="white" transform="translate(10 13)"/>
</clipPath>
</defs>
</svg>
