<svg width="239" height="64" viewBox="0 0 239 64" fill="none" xmlns="http://www.w3.org/2000/svg">
<path d="M82.1016 47H76.2891C76.1484 47 76.0703 46.9219 76.0547 46.7656L69.4219 13.7891C69.3906 13.6641 69.4531 13.6016 69.6094 13.6016H75.0469C75.1719 13.6016 75.25 13.6641 75.2812 13.7891L79.2188 35.7734L83.0625 13.7891C83.0938 13.6641 83.1719 13.6016 83.2969 13.6016H88.6641C88.8359 13.6016 88.8984 13.6641 88.8516 13.7891L82.3359 46.7656C82.3203 46.9219 82.2422 47 82.1016 47ZM104.461 47H88.9453C88.8203 47 88.7578 46.9219 88.7578 46.7656L88.8047 13.7891C88.8047 13.6641 88.8672 13.6016 88.9922 13.6016H104.414C104.539 13.6016 104.602 13.6797 104.602 13.8359V19.2031C104.602 19.3281 104.539 19.3906 104.414 19.3906H94.5703V26.8906H104.414C104.539 26.8906 104.602 26.9531 104.602 27.0781L104.648 32.5156C104.648 32.6406 104.586 32.7031 104.461 32.7031H94.5703V41.0938H104.461C104.586 41.0938 104.648 41.1719 104.648 41.3281V46.8125C104.648 46.9375 104.586 47 104.461 47ZM114.141 47H109.336C109.086 47 108.961 46.8906 108.961 46.6719L108.914 13.9766C108.914 13.7266 109.039 13.6016 109.289 13.6016H113.625L121.734 32.5156L121.5 13.9766C121.5 13.7266 121.641 13.6016 121.922 13.6016H126.68C126.867 13.6016 126.961 13.7266 126.961 13.9766L127.008 46.7188C127.008 46.9062 126.93 47 126.773 47H122.555L114.234 29.3281L114.586 46.625C114.586 46.875 114.438 47 114.141 47ZM140.016 46.9531L131.414 47C131.258 47 131.18 46.9219 131.18 46.7656L131.273 13.7891C131.273 13.6641 131.336 13.6016 131.461 13.6016L140.438 13.5547C142.219 13.5078 143.828 13.9141 145.266 14.7734C146.719 15.6328 147.875 16.7969 148.734 18.2656C149.609 19.7188 150.047 21.3281 150.047 23.0938V36.875C150.047 38.7188 149.602 40.4062 148.711 41.9375C147.805 43.4531 146.602 44.6641 145.102 45.5703C143.602 46.4609 141.906 46.9219 140.016 46.9531ZM140.438 19.2969L137.086 19.3438L137.039 41.0938H140.016C141.203 41.0938 142.203 40.6797 143.016 39.8516C143.828 39.0234 144.234 38.0312 144.234 36.875V23.0469C144.234 22.0312 143.859 21.1484 143.109 20.3984C142.359 19.6328 141.469 19.2656 140.438 19.2969ZM162.703 47.4688C161 47.4688 159.43 47.0312 157.992 46.1562C156.57 45.2812 155.422 44.1172 154.547 42.6641C153.688 41.1953 153.258 39.5859 153.258 37.8359L153.305 22.625C153.305 20.8438 153.734 19.2422 154.594 17.8203C155.438 16.3828 156.578 15.2344 158.016 14.375C159.453 13.5 161.016 13.0625 162.703 13.0625C164.453 13.0625 166.023 13.4922 167.414 14.3516C168.82 15.2109 169.945 16.3672 170.789 17.8203C171.648 19.2578 172.078 20.8594 172.078 22.625L172.125 37.8359C172.125 39.5859 171.703 41.1875 170.859 42.6406C170 44.1094 168.859 45.2812 167.438 46.1562C166.016 47.0312 164.438 47.4688 162.703 47.4688ZM162.703 41.6797C163.672 41.6797 164.516 41.2891 165.234 40.5078C165.953 39.7109 166.312 38.8203 166.312 37.8359L166.266 22.625C166.266 21.5625 165.93 20.6641 165.258 19.9297C164.586 19.1953 163.734 18.8281 162.703 18.8281C161.719 18.8281 160.875 19.1875 160.172 19.9062C159.469 20.625 159.117 21.5312 159.117 22.625V37.8359C159.117 38.8828 159.469 39.7891 160.172 40.5547C160.875 41.3047 161.719 41.6797 162.703 41.6797ZM184.641 47.4688C182.938 47.4688 181.367 47.0312 179.93 46.1562C178.508 45.2812 177.359 44.1172 176.484 42.6641C175.625 41.1953 175.195 39.5859 175.195 37.8359L175.242 22.625C175.242 20.8438 175.672 19.2422 176.531 17.8203C177.375 16.3828 178.516 15.2344 179.953 14.375C181.391 13.5 182.953 13.0625 184.641 13.0625C186.391 13.0625 187.961 13.4922 189.352 14.3516C190.758 15.2109 191.883 16.3672 192.727 17.8203C193.586 19.2578 194.016 20.8594 194.016 22.625L194.062 37.8359C194.062 39.5859 193.641 41.1875 192.797 42.6406C191.938 44.1094 190.797 45.2812 189.375 46.1562C187.953 47.0312 186.375 47.4688 184.641 47.4688ZM184.641 41.6797C185.609 41.6797 186.453 41.2891 187.172 40.5078C187.891 39.7109 188.25 38.8203 188.25 37.8359L188.203 22.625C188.203 21.5625 187.867 20.6641 187.195 19.9297C186.523 19.1953 185.672 18.8281 184.641 18.8281C183.656 18.8281 182.812 19.1875 182.109 19.9062C181.406 20.625 181.055 21.5312 181.055 22.625V37.8359C181.055 38.8828 181.406 39.7891 182.109 40.5547C182.812 41.3047 183.656 41.6797 184.641 41.6797ZM203.32 47H197.883C197.758 47 197.695 46.9219 197.695 46.7656L197.789 13.7891C197.789 13.6641 197.852 13.6016 197.977 13.6016H207.68C209.414 13.6016 211.008 14.0234 212.461 14.8672C213.914 15.7109 215.07 16.8438 215.93 18.2656C216.805 19.6875 217.242 21.2969 217.242 23.0938C217.242 24.2656 217.062 25.3281 216.703 26.2812C216.344 27.2344 215.922 28.0391 215.438 28.6953C214.969 29.3516 214.539 29.8359 214.148 30.1484C215.883 32.0703 216.75 34.3281 216.75 36.9219L216.797 46.7656C216.797 46.9219 216.719 47 216.562 47H211.125C211 47 210.938 46.9531 210.938 46.8594V36.9219C210.938 35.7656 210.531 34.7656 209.719 33.9219C208.906 33.0781 207.906 32.6562 206.719 32.6562H203.555L203.508 46.7656C203.508 46.9219 203.445 47 203.32 47ZM207.68 19.3438H203.555V26.8906H207.68C208.664 26.8906 209.539 26.5234 210.305 25.7891C211.086 25.0547 211.477 24.1562 211.477 23.0938C211.477 22.0781 211.102 21.2031 210.352 20.4688C209.602 19.7188 208.711 19.3438 207.68 19.3438ZM218.25 46.7656L224.203 13.7891C224.234 13.6641 224.312 13.6016 224.438 13.6016H231.398C231.523 13.6016 231.602 13.6641 231.633 13.7891L237.352 46.7656C237.367 46.9219 237.305 47 237.164 47H231.844C231.688 47 231.602 46.9219 231.586 46.7656L231.07 43.25H224.531L224.016 46.7656C224 46.9219 223.922 47 223.781 47H218.438C218.312 47 218.25 46.9219 218.25 46.7656ZM227.648 24.6406L225.492 38.1172H230.109L228.141 24.6406L227.859 22.8594L227.648 24.6406Z" fill="white"/>
<circle cx="32" cy="32" r="31.5" fill="white" stroke="#3B82F6"/>
<g clip-path="url(#clip0_47_316)">
<path d="M28.9095 15.6049C29.3649 14.7292 29.0215 13.653 28.1481 13.2003C27.2747 12.7475 26.1847 13.0889 25.7293 13.9573L18.7792 27.2499H12.3889C11.0675 27.2499 10 28.3112 10 29.6249C10 30.9385 11.0675 31.9999 12.3889 31.9999L16.2634 47.4003C16.7934 49.5155 18.7045 50.9999 20.8993 50.9999H42.1007C44.2955 50.9999 46.2066 49.5155 46.7366 47.4003L50.6111 31.9999C51.9325 31.9999 53 30.9385 53 29.6249C53 28.3112 51.9325 27.2499 50.6111 27.2499H44.2208L37.2707 13.9573C36.8153 13.0889 35.7328 12.7475 34.8519 13.2003C33.971 13.653 33.6351 14.7292 34.0905 15.6049L40.1821 27.2499H22.8179L28.9095 15.6049ZM24.3333 35.5624V42.6874C24.3333 43.3405 23.7958 43.8749 23.1389 43.8749C22.4819 43.8749 21.9444 43.3405 21.9444 42.6874V35.5624C21.9444 34.9092 22.4819 34.3749 23.1389 34.3749C23.7958 34.3749 24.3333 34.9092 24.3333 35.5624ZM31.5 34.3749C32.1569 34.3749 32.6944 34.9092 32.6944 35.5624V42.6874C32.6944 43.3405 32.1569 43.8749 31.5 43.8749C30.8431 43.8749 30.3056 43.3405 30.3056 42.6874V35.5624C30.3056 34.9092 30.8431 34.3749 31.5 34.3749ZM41.0556 35.5624V42.6874C41.0556 43.3405 40.5181 43.8749 39.8611 43.8749C39.2042 43.8749 38.6667 43.3405 38.6667 42.6874V35.5624C38.6667 34.9092 39.2042 34.3749 39.8611 34.3749C40.5181 34.3749 41.0556 34.9092 41.0556 35.5624Z" fill="#1E3A8A"/>
</g>
<defs>
<clipPath id="clip0_47_316">
<rect width="43" height="38" fill="white" transform="translate(10 13)"/>
</clipPath>
</defs>
</svg>
